<svg xmlns="http://www.w3.org/2000/svg" width="18.875" height="18.273" viewBox="0 0 18.875 18.273">
  <g id="house-black-silhouette-without-door" transform="translate(0 -4.89)">
    <path id="Path_1387" data-name="Path 1387" d="M18.638,13.806a.9.9,0,0,0-.074-1.288L10.129,5.137a1.052,1.052,0,0,0-1.372.016L.293,12.911A.9.9,0,0,0,.253,14.2l.212.221a.925.925,0,0,0,1.27.1l.633-.566v8.293a.921.921,0,0,0,.921.921h3.3a.921.921,0,0,0,.921-.921v-5.8h4.208v5.8a.87.87,0,0,0,.865.92h3.5A.921.921,0,0,0,17,22.242V14.066l.39.343c.215.189.667.037,1.009-.339Z" transform="translate(0 0)" fill="#9290b1"/>
  </g>
</svg>
