<svg xmlns="http://www.w3.org/2000/svg" width="12.224" height="16.132" viewBox="0 0 12.224 16.132">
  <g id="lock" transform="translate(0.25 0.25)">
    <g id="Group_2424" data-name="Group 2424">
      <g id="Group_2423" data-name="Group 2423">
        <path id="Path_2198" data-name="Path 2198" d="M213.866,279.683l-.205,1.847a.326.326,0,0,0,.324.362h1.3a.326.326,0,0,0,.324-.362l-.205-1.847a1.289,1.289,0,0,0,.533-1.048,1.3,1.3,0,0,0-2.605,0A1.289,1.289,0,0,0,213.866,279.683Zm.77-1.7a.649.649,0,0,1,.281,1.235.326.326,0,0,0-.182.329l.188,1.692h-.575l.188-1.692a.326.326,0,0,0-.182-.329.649.649,0,0,1,.281-1.235Z" transform="translate(-208.774 -268.865)" fill="#92a1b1" stroke="#92a1b1" stroke-width="0.5"/>
        <path id="Path_2199" data-name="Path 2199" d="M75.4,5.862h-.977v-1.3a4.559,4.559,0,1,0-9.119,0v1.3h-.977A.325.325,0,0,0,64,6.188V14.33a1.3,1.3,0,0,0,1.3,1.3h9.119a1.3,1.3,0,0,0,1.3-1.3V6.188A.325.325,0,0,0,75.4,5.862Zm-9.445-1.3a3.908,3.908,0,0,1,7.816,0v1.3h-.651v-1.3a3.257,3.257,0,0,0-6.514,0v1.3h-.651Zm6.514,0v1.3H67.257v-1.3a2.605,2.605,0,1,1,5.211,0Zm2.605,9.77a.652.652,0,0,1-.651.651H65.3a.652.652,0,0,1-.651-.651V6.514H75.073Z" transform="translate(-64)" fill="#92a1b1" stroke="#92a1b1" stroke-width="0.5"/>
      </g>
    </g>
  </g>
</svg>
