<svg xmlns="http://www.w3.org/2000/svg" width="17.688" height="21.227" viewBox="0 0 17.688 21.227">
  <g id="notification_2_" data-name="notification (2)" transform="translate(-42.675)">
    <g id="Group_2326" data-name="Group 2326" transform="translate(42.675)">
      <g id="Group_2325" data-name="Group 2325">
        <path id="Path_1383" data-name="Path 1383" d="M60.3,17.9l-1.519-2.531A7.519,7.519,0,0,1,57.71,11.5V9.287a6.2,6.2,0,0,0-4.422-5.93V1.769a1.769,1.769,0,0,0-3.538,0V3.357a6.2,6.2,0,0,0-4.422,5.93V11.5a7.524,7.524,0,0,1-1.071,3.868L42.738,17.9a.443.443,0,0,0,.379.67h16.8a.442.442,0,0,0,.379-.67Z" transform="translate(-42.675 0)" fill="#9290b1"/>
      </g>
    </g>
    <g id="Group_2328" data-name="Group 2328" transform="translate(48.734 19.458)">
      <g id="Group_2327" data-name="Group 2327">
        <path id="Path_1384" data-name="Path 1384" d="M188.815,469.333a3.077,3.077,0,0,0,5.57,0Z" transform="translate(-188.815 -469.333)" fill="#9290b1"/>
      </g>
    </g>
  </g>
</svg>
