<svg xmlns="http://www.w3.org/2000/svg" width="18.272" height="18.273" viewBox="0 0 18.272 18.273">
  <g id="magnifying-glass_4_" data-name="magnifying-glass (4)" transform="translate(-0.001 0)">
    <path id="Path_1382" data-name="Path 1382" d="M12.2,2.091a7.15,7.15,0,1,0-.978,10.922,1.505,1.505,0,0,0,.408.758l4.06,4.06a1.51,1.51,0,1,0,2.136-2.136l-4.06-4.061a1.51,1.51,0,0,0-.757-.407A7.157,7.157,0,0,0,12.2,2.091Zm-1.282,8.831a5.338,5.338,0,1,1,0-7.549A5.344,5.344,0,0,1,10.922,10.922Z" fill="#9290b1"/>
  </g>
</svg>
