<svg xmlns="http://www.w3.org/2000/svg" width="28.457" height="19.525" viewBox="0 0 28.457 19.525">
  <g id="Group_2327" data-name="Group 2327" transform="translate(-166.5 -690.756)">
    <g id="pencil" transform="matrix(-0.208, 0.978, -0.978, -0.208, 196.896, 693.892)">
      <g id="Group_2324" data-name="Group 2324" transform="translate(0 0)">
        <g id="Group_2323" data-name="Group 2323" transform="translate(0 0)">
          <path id="Path_1380" data-name="Path 1380" d="M11.181,2.333a.353.353,0,0,0-.485,0L4.175,8.859a.343.343,0,0,0,.089.55l.535.268v.9l-1.64.469L1.5,9.39l.469-1.642h.9l.268.536a.343.343,0,0,0,.252.185.344.344,0,0,0,.3-.1l6.521-6.526a.343.343,0,0,0,0-.485L8.95.1A.342.342,0,0,0,8.708,0h0a.343.343,0,0,0-.243.1L1.471,7.164s0,.009-.006.012a.336.336,0,0,0-.08.135L.789,9.4.013,12.115a.343.343,0,0,0,.33.437.348.348,0,0,0,.094-.013l2.717-.777,2.083-.6c.006,0,.011-.007.017-.009a.634.634,0,0,0,.116-.068s.01-.005.015-.01l7.057-7a.343.343,0,0,0,0-.486Z" transform="translate(0 2.532)" fill="#fff"/>
          <path id="Path_1381" data-name="Path 1381" d="M5.352,2.448,3.3.389a1.4,1.4,0,0,0-1.94,0L.1,1.659a.343.343,0,0,0,0,.484l3.5,3.5a.342.342,0,0,0,.484,0L5.352,4.389a1.373,1.373,0,0,0,0-1.941Z" transform="translate(9.33 0)" fill="#fff"/>
        </g>
      </g>
    </g>
    <g id="dish" transform="translate(166.5 695.96)">
      <g id="Group_2326" data-name="Group 2326" transform="translate(0 0)">
        <g id="Group_2325" data-name="Group 2325">
          <path id="Path_1382" data-name="Path 1382" d="M21.033,341.333H.448a.447.447,0,0,0-.448.448v.448a3.391,3.391,0,0,0,.572,1.887,1.786,1.786,0,0,0,1.489.8H19.42a1.787,1.787,0,0,0,1.49-.8,3.393,3.393,0,0,0,.571-1.887v-.448A.447.447,0,0,0,21.033,341.333Z" transform="translate(0 -330.592)" fill="#fff"/>
          <path id="Path_1383" data-name="Path 1383" d="M36.726,95.178H54.268a.448.448,0,0,0,.439-.537,9.421,9.421,0,0,0-7.981-7.429,1.343,1.343,0,1,0-2.457,0,9.421,9.421,0,0,0-7.981,7.429.448.448,0,0,0,.439.537Zm2.181-2.462a7.6,7.6,0,0,1,3.258-3.037.447.447,0,0,1,.392.8,6.714,6.714,0,0,0-2.876,2.681.447.447,0,0,1-.774-.448Z" transform="translate(-34.756 -85.333)" fill="#fff"/>
        </g>
      </g>
    </g>
  </g>
</svg>
